<svg width="224" height="101" viewBox="0 0 224 101" fill="none" xmlns="http://www.w3.org/2000/svg">
<g clip-path="url(#clip0_48_569)">
<path d="M224 13.1688V80.2103C224 87.489 218.089 93.3791 210.8 93.3791H37.1189C35.0608 92.7473 33.1082 91.951 31.2612 91.0296C23.9258 87.3706 18.4506 81.8029 15.9241 76.854C10.2577 65.7319 19.6578 50.24 24.1699 42.7968C24.2952 42.606 24.4073 42.4085 24.5195 42.2243L28.2597 53.6359L47.2183 14.8996L6.1744 28.3777L18.7673 34.4783C17.9493 35.6629 17.1643 36.8738 16.4189 38.1045C13.2921 43.2443 9.03071 49.9702 6.80107 58.0584C5.11235 64.1788 5.33663 68.2591 5.07936 68.2525C4.67038 68.2393 4.41311 57.9333 5.07936 13.1688C5.07277 5.89008 10.9833 0 18.2725 0H210.8C218.083 0 224 5.89008 224 13.1688Z" fill="#00A59C"/>
<path d="M55.3321 96.4064C34.4737 105.738 12.7512 100.092 4.15585 86.3373C-2.47372 75.722 0.573903 63.264 1.56999 59.7366C1.36549 64.3894 1.66234 74.1952 8.00165 83.0205C17.4348 96.1497 36.3471 101.638 55.3387 96.413L55.3321 96.4064Z" fill="#F49405"/>
<path d="M73.0373 44.0604C73.0373 51.3522 67.9645 55.4391 59.8442 55.4391H50.0087L47.0204 64.3894H44.0585L52.7067 36.0446H62.8984C69.3102 36.0446 73.0439 38.9995 73.0439 44.0604H73.0373ZM70.0359 44.3434C70.0359 40.6185 67.3972 38.631 62.6477 38.631H55.1804L50.7937 52.8067H59.8903C66.3418 52.8067 70.0359 49.9307 70.0359 44.3434Z" fill="white"/>
<path d="M98.2692 43.626L94.0738 64.5802H91.356L92.0355 61.2765C90.0367 63.468 87.2463 64.7843 83.8491 64.7843C78.4597 64.7843 74.7062 61.4411 74.7062 55.8998C74.7062 48.7264 79.7394 43.4747 86.5669 43.4747C90.5578 43.4747 93.3548 45.1068 94.5553 48.0156L95.4327 43.6326H98.2692V43.626ZM93.5593 52.471C93.5593 48.3644 91.046 45.936 86.6527 45.936C81.4216 45.936 77.5494 50.0755 77.5494 55.7747C77.5494 59.8813 80.0627 62.2703 84.456 62.2703C89.6871 62.2703 93.5593 58.1703 93.5593 52.471Z" fill="white"/>
<path d="M123.824 43.6261L108.494 67.2851C105.901 71.2666 103.942 72.5039 100.908 72.5039C98.9487 72.5039 96.9565 71.826 95.9142 70.6348L97.4315 68.5618C98.3484 69.5161 99.549 70.0755 101.145 70.0755C102.94 70.0755 104.338 69.2397 105.974 66.6862L107.452 64.4552L102.221 43.6195H105.097L109.45 61.4674L120.909 43.6195H123.824V43.6261Z" fill="white"/>
<path d="M147.44 43.4681V64.5802H143.805V61.395C142.249 63.5865 139.61 64.8237 136.615 64.8237C131.147 64.8237 127.512 61.8359 127.512 55.6234V43.4747H131.344V55.1824C131.344 59.3285 133.422 61.395 137.057 61.395C141.048 61.395 143.608 58.9271 143.608 54.3861V43.4747H147.44V43.4681Z" fill="#F49405"/>
<path d="M174.829 52.425V64.5737H170.996V52.8593C170.996 48.7132 168.919 46.6863 165.284 46.6863C161.214 46.6863 158.575 49.1147 158.575 53.6951V64.5671H154.743V43.4549H158.417V46.6402C159.974 44.4882 162.691 43.2509 166.042 43.2509C171.194 43.2509 174.829 46.1993 174.829 52.4118V52.425Z" fill="#F49405"/>
<path d="M181.261 36.9331C181.261 35.5379 182.376 34.4257 183.853 34.4257C185.331 34.4257 186.452 35.4984 186.452 36.8541C186.452 38.2888 185.377 39.401 183.853 39.401C182.329 39.401 181.261 38.3283 181.261 36.9331ZM181.94 43.4681H185.773V64.5802H181.94V43.4681Z" fill="#F49405"/>
<path d="M204.975 63.343C203.821 64.3367 202.06 64.8172 200.345 64.8172C196.07 64.8172 193.636 62.4677 193.636 58.2032V46.6139H190.041V43.4681H193.636V38.8482H197.469V43.4681H203.537V46.6139H197.469V58.0452C197.469 60.3157 198.669 61.5924 200.78 61.5924C201.895 61.5924 202.977 61.237 203.775 60.5987L204.975 63.3496V63.343Z" fill="#F49405"/>
</g>
<defs>
<clipPath id="clip0_48_569">
<rect width="224" height="101" fill="white"/>
</clipPath>
</defs>
</svg>
